<svg xmlns="http://www.w3.org/2000/svg" xmlns:xlink="http://www.w3.org/1999/xlink" id="Layer_1" x="0px" y="0px" viewBox="0 0 512 512" style="enable-background:new 0 0 512 512;" xml:space="preserve">
<g>
	<g>
		<path d="M337.361,110.874c0-14.652,17.084-25.591,32.367-25.591c4.881,0,11.819,1.126,17.135,6.485    c5.171,5.214,7.782,13.303,7.782,24.013c-0.196,32.222-4.463,48.572-11.537,75.657l-3.464,13.303h95.565l1.203-7.125    c5.76-34.338,5.751-54.955,5.743-92.373v-4.787C482.154,35.209,419.358,0,360.273,0c-30.968,0-59.452,9.523-80.213,26.812    c-24.09,20.07-36.838,49.519-36.838,85.188c0,103.074,54.417,158.575,103.091,187.58    c-34.048,62.046-79.403,103.253-94.558,116.019C101.201,290.466,115.042,79.514,115.195,77.372l0.691-9.165H29.845l0.043,8.567    c0.828,183.04,65.289,331.093,181.504,416.879c1.673,1.237,3.012,2.219,3.985,2.978C233.066,510.524,239.688,512,257.216,512    c1.34,0,2.748-0.008,4.224-0.026l7.842-0.051c28.689-1.545,83.857-60.518,147.593-157.764c5.257-8.073,9.933-15.607,14.217-22.869    c24.61,4.872,41.711,5.035,42.479,5.043l8.585,0.051v-78.933l-7.74-0.725C347.242,244.838,337.361,142.08,337.361,110.874z"></path>
	</g>
</g>
<g>
</g>
<g>
</g>
<g>
</g>
<g>
</g>
<g>
</g>
<g>
</g>
<g>
</g>
<g>
</g>
<g>
</g>
<g>
</g>
<g>
</g>
<g>
</g>
<g>
</g>
<g>
</g>
<g>
</g>
</svg>